<svg width="400" height="400" xmlns="http://www.w3.org/2000/svg">
 <!-- Created with Method Draw - http://github.com/duopixel/Method-Draw/ -->
 <g>
  <title>background</title>
  <rect fill="#ffffff" id="canvas_background" height="402" width="402" y="-1" x="-1"/>
  <g display="none" overflow="visible" y="0" x="0" height="100%" width="100%" id="canvasGrid">
   <rect fill="url(#gridpattern)" stroke-width="0" y="0" x="0" height="100%" width="100%"/>
  </g>
 </g>
 <g>
  <title>Layer 1</title>
  <path id="svg_1" d="m227.046209,264.94803l-11.266551,-39.432917c3.301766,-2.896285 6.400791,-5.99531 9.32604,-9.311556l39.403966,11.266548c4.15617,-6.053235 7.733083,-12.482987 10.933478,-19.158924l-29.324892,-28.383591c1.404699,-4.17065 2.621139,-8.413707 3.490024,-12.787097l39.519818,-9.905294c0.289629,-3.649319 0.564776,-7.313119 0.564776,-11.049326s-0.289629,-7.385526 -0.564776,-11.034845l-39.519818,-9.905294c-0.883367,-4.37339 -2.099807,-8.616447 -3.490024,-12.787097l29.339374,-28.383591c-3.214877,-6.661455 -6.79179,-13.105689 -10.94796,-19.158924l-39.403966,11.252066c-2.910767,-3.301765 -6.024274,-6.400789 -9.32604,-9.311556l11.266551,-39.418436c-6.053237,-4.141687 -12.497473,-7.73308 -19.173411,-10.933475l-28.383599,29.339365c-4.15617,-1.404698 -8.41371,-2.606656 -12.787101,-3.490023l-9.890816,-39.534287c-3.663801,-0.275147 -7.313121,-0.564776 -11.04933,-0.564776s-7.385528,0.289628 -11.034848,0.564776l-9.905297,39.534287c-4.373391,0.883367 -8.61645,2.085325 -12.787101,3.490023l-28.383599,-29.339365c-6.661457,3.243839 -13.091211,6.820751 -19.144448,10.976919l11.266551,39.418436c-3.301766,2.896285 -6.415273,6.009791 -9.311558,9.297074l-39.418448,-11.266548c-4.15617,6.053235 -7.733083,12.497469 -10.933478,19.173405l29.339374,28.383591c-1.390217,4.17065 -2.606657,8.413707 -3.490024,12.787097l-39.534299,9.905294c-0.275147,3.649319 -0.564776,7.313119 -0.564776,11.034845s0.289629,7.385526 0.564776,11.049326l39.534299,9.905294c0.883367,4.37339 2.099807,8.616447 3.490024,12.787097l-29.339374,28.383591c3.200396,6.661455 6.777308,13.105689 10.933478,19.158924l39.418448,-11.266548c2.896286,3.316246 6.009793,6.400789 9.311558,9.311556l-11.266551,39.432917c6.053237,4.141687 12.497473,7.718599 19.15893,10.933475l28.383599,-29.339365c4.170651,1.404698 8.41371,2.621138 12.787101,3.490023l9.905297,39.519806c3.64932,0.289628 7.313121,0.564776 11.04933,0.564776s7.385528,-0.289628 11.04933,-0.564776l9.890816,-39.519806c4.373391,-0.883367 8.630931,-2.099806 12.787101,-3.490023l28.383599,29.339365c6.646976,-3.243839 13.091211,-6.820751 19.144448,-10.962438zm-81.269775,-69.525316c-27.181641,0 -49.222375,-22.040727 -49.222375,-49.22236s22.040734,-49.207878 49.222375,-49.207878s49.207893,22.026246 49.207893,49.207878s-22.026252,49.22236 -49.207893,49.22236zm224.346287,102.890517c0.275147,-7.921339 -0.868886,-15.987492 -3.330728,-23.952275l18.014897,-25.675565c-2.722509,-5.068498 -5.792571,-9.876331 -9.282596,-14.249721l-30.729591,6.444234c-6.198051,-5.271238 -13.250507,-9.383963 -20.795331,-12.323692l-8.848153,-30.10688c-5.589831,-0.984737 -11.25207,-1.52055 -16.986715,-1.535031l-14.104911,28.036037c-4.040318,0.781997 -8.080637,1.853622 -12.048548,3.374172c-3.721727,1.41918 -7.19727,3.185913 -10.527998,5.111943l-29.049745,-11.860286c-4.300984,3.794133 -8.225451,7.892376 -11.773401,12.338173l13.134655,28.499442c-3.75069,7.168305 -6.328384,14.886904 -7.515861,22.953057l-27.384381,15.350309c0.275147,5.618792 1.100589,11.237585 2.374954,16.870859l30.468925,7.515859c3.34521,7.588266 7.834453,14.380054 13.264988,20.172624l-5.097463,30.961284c4.634057,3.330728 9.557743,6.198049 14.669687,8.688854l24.835649,-19.11548c7.762046,2.041881 15.886127,2.823878 24.068134,2.172214l21.027034,23.271648c2.896286,-0.825441 5.77809,-1.708808 8.630931,-2.794915c2.53425,-0.955774 4.923686,-2.085325 7.313121,-3.229358l0.535813,-31.352283c6.58905,-4.909203 12.207844,-10.817624 16.682605,-17.464597l31.294366,-1.940511c2.201177,-5.198831 4.040318,-10.600402 5.329166,-16.146788l-24.169504,-20.013328zm-60.286186,29.064218c-17.392195,6.632492 -36.855235,-2.085325 -43.50221,-19.477515s2.070844,-36.869705 19.46304,-43.516679c17.392195,-6.632492 36.884198,2.085325 43.531173,19.477515c6.632494,17.39219 -2.099807,36.869705 -19.492002,43.516679z" stroke-width="10" stroke="#666666" fill="#5cc47e"/>
 </g>
</svg>